<svg xmlns="http://www.w3.org/2000/svg" width="512" height="512"><path fill="#56A3FE" d="m243.195 7.797 2.855-.022C285.587 7.546 285.587 7.546 303 11l3.1.602C328.582 16.098 350.388 22.912 371 33l2.322 1.132C396.308 45.472 416.554 60.282 435 78l2.719 2.594C467.687 109.822 487.629 148.95 495 190l.54 2.977c1.65 10.14 1.859 20.144 1.835 30.398l-.002 2.668c-.04 14.309-.954 28.01-4.373 41.957l-.65 2.7c-5.97 24.123-15.863 47.058-30.35 67.3l-2.078 2.91c-12.901 17.612-27.608 33.716-45.155 46.768a336.417 336.417 0 0 0-5.244 4.025c-39.107 30.08-91.405 48.254-140.753 48.5l-2.864.021c-3.032.018-6.062.024-9.094.026l-3.133.003c-33.457-.022-33.457-.022-48.42-4.67-15.95-4.639-25.645.29-39.696 7.98-2.25 1.174-4.501 2.341-6.756 3.503a1500.758 1500.758 0 0 0-12.792 6.684c-9.364 4.95-18.819 9.711-28.3 14.434l-2.352 1.171c-3.133 1.56-6.267 3.12-9.4 4.678a5018.315 5018.315 0 0 0-18.091 9.051c-5.457 2.74-10.92 5.469-16.39 8.186a1628.469 1628.469 0 0 0-8.815 4.412c-2.903 1.464-5.814 2.91-8.73 4.35l-2.449 1.253C46.382 503.772 42.686 504.528 37 504c-2.5-1.375-2.5-1.375-4-4-.933-7.947.857-15.786 2.403-23.54l.773-4c.551-2.851 1.108-5.702 1.67-8.551.888-4.508 1.761-9.018 2.633-13.528 2.007-10.381 4.034-20.758 6.06-31.135 1.861-9.53 3.718-19.06 5.56-28.594.867-4.483 1.743-8.963 2.625-13.443.547-2.784 1.086-5.57 1.623-8.356.37-1.905.748-3.808 1.127-5.711l.66-3.445.583-2.986c.472-4.525-.379-7.712-3.088-11.32l-1.475-2.01-1.592-2.131c-22.132-30.608-37.418-67.73-37.8-105.938l-.03-2.46C14.56 214.903 14.701 197.542 19 180l.65-2.7C25.62 153.177 35.512 130.242 50 110l2.078-2.91C64.98 89.478 79.686 73.374 97.233 60.322c1.765-1.32 3.505-2.67 5.244-4.025 39.123-30.092 91.35-48.253 140.718-48.5Zm-71.57 210.828c-2.112 3.087-2.237 4.703-1.625 8.375 1.5 2.5 1.5 2.5 4 4 3.672.612 5.288.487 8.375-1.625 2.112-3.087 2.237-4.703 1.625-8.375-1.5-2.5-1.5-2.5-4-4-3.672-.612-5.288-.487-8.375 1.625Zm80 0c-2.112 3.087-2.237 4.703-1.625 8.375 1.5 2.5 1.5 2.5 4 4 3.672.612 5.288.487 8.375-1.625 2.112-3.087 2.237-4.703 1.625-8.375-1.5-2.5-1.5-2.5-4-4-3.672-.612-5.288-.487-8.375 1.625Zm80 0c-2.112 3.087-2.237 4.703-1.625 8.375 1.5 2.5 1.5 2.5 4 4 3.672.612 5.288.487 8.375-1.625 2.112-3.087 2.237-4.703 1.625-8.375-1.5-2.5-1.5-2.5-4-4-3.672-.612-5.288-.487-8.375 1.625Z"/><path fill="#004FAC" d="m243.195 7.797 2.855-.022C285.587 7.546 285.587 7.546 303 11l3.1.602C328.582 16.098 350.388 22.912 371 33l2.322 1.132C396.308 45.472 416.554 60.282 435 78l2.719 2.594C467.687 109.822 487.629 148.95 495 190l.54 2.977c1.65 10.14 1.859 20.144 1.835 30.398l-.002 2.668c-.04 14.309-.954 28.01-4.373 41.957l-.65 2.7c-5.97 24.123-15.863 47.058-30.35 67.3l-2.078 2.91c-12.901 17.612-27.608 33.716-45.155 46.768a336.417 336.417 0 0 0-5.244 4.025c-39.107 30.08-91.405 48.254-140.753 48.5l-2.864.021c-3.032.018-6.062.024-9.094.026l-3.133.003c-33.457-.022-33.457-.022-48.42-4.67-15.95-4.639-25.645.29-39.696 7.98-2.25 1.174-4.501 2.341-6.756 3.503a1500.758 1500.758 0 0 0-12.792 6.684c-9.364 4.95-18.819 9.711-28.3 14.434l-2.352 1.171c-3.133 1.56-6.267 3.12-9.4 4.678a5018.315 5018.315 0 0 0-18.091 9.051c-5.457 2.74-10.92 5.469-16.39 8.186a1628.469 1628.469 0 0 0-8.815 4.412c-2.903 1.464-5.814 2.91-8.73 4.35l-2.449 1.253C46.382 503.772 42.686 504.528 37 504c-2.5-1.375-2.5-1.375-4-4-.933-7.947.857-15.786 2.403-23.54l.773-4c.551-2.851 1.108-5.702 1.67-8.551.888-4.508 1.761-9.018 2.633-13.528 2.007-10.381 4.034-20.758 6.06-31.135 1.861-9.53 3.718-19.06 5.56-28.594.867-4.483 1.743-8.963 2.625-13.443.547-2.784 1.086-5.57 1.623-8.356.37-1.905.748-3.808 1.127-5.711l.66-3.445.583-2.986c.472-4.525-.379-7.712-3.088-11.32l-1.475-2.01-1.592-2.131c-22.132-30.608-37.418-67.73-37.8-105.938l-.03-2.46C14.56 214.903 14.701 197.542 19 180l.65-2.7C25.62 153.177 35.512 130.242 50 110l2.078-2.91C64.98 89.478 79.686 73.374 97.233 60.322c1.765-1.32 3.505-2.67 5.244-4.025 39.123-30.092 91.35-48.253 140.718-48.5ZM209 28l-3.516.7c-42.707 8.735-82.524 28.32-113.907 58.775a465.704 465.704 0 0 1-4.815 4.572C58.138 119.355 40.792 155.623 33 194l-.758 3.645C30.204 209.287 30.76 221.229 31 233l.026 2.192c.573 37.912 17.71 74.936 40.943 104.234 4.792 6.073 4.209 9.838 3.335 17.36-.939 6.832-2.413 13.58-3.825 20.328-1.043 4.987-2.057 9.98-3.073 14.972l-.623 3.054c-1.927 9.473-3.69 18.973-5.408 28.485-1.71 9.463-3.458 18.914-5.363 28.34l-.497 2.46c-.786 3.877-1.58 7.752-2.383 11.626l-.847 4.14-.754 3.632c-.471 2.819-.572 5.332-.531 8.177l2.977-1.497c8.612-4.323 17.256-8.57 25.939-12.749 19.836-9.555 39.52-19.412 59.202-29.279 4.567-2.288 9.136-4.575 13.704-6.862A54840.245 54840.245 0 0 0 181 418l2.246-1.213c5.001-2.244 10.474-.487 15.441 1.026 6.113 1.754 12.211 2.943 18.5 3.875l2.407.36c23.56 3.344 47.828 2.924 71.406-.048l2.226-.26C315.208 419.078 336.8 411.885 357 403l2.187-.936c22.243-9.56 42.904-23.758 60.287-40.59a365.057 365.057 0 0 1 3.189-3.042c29.28-27.638 48.464-63.973 55.962-103.464.332-1.742.693-3.479 1.059-5.214 7.993-44.16-5.33-92.142-30.244-128.752A270.495 270.495 0 0 0 442 111l-1.305-1.69c-38.132-48.702-95.504-76.497-156.1-83.996L282 25l-2.301-.297C256.349 21.98 231.957 23.328 209 28Z"/><path fill="#0251AE" d="M347.055 201.898c6.505 3.684 11.85 8.788 13.945 16.102 1.04 7.491-.214 13.877-4.441 20.133-4.71 5.922-9.752 9.209-17.297 10.242-6.251.277-11.215-.566-16.262-4.375-6.26-5.807-10.054-11.745-10.438-20.438.237-6.67 1.929-10.927 6.532-15.761 8.245-7.655 17.176-10.575 27.96-5.903Zm-15.43 16.727c-2.112 3.087-2.237 4.703-1.625 8.375 1.5 2.5 1.5 2.5 4 4 3.672.612 5.288.487 8.375-1.625 2.112-3.087 2.237-4.703 1.625-8.375-1.5-2.5-1.5-2.5-4-4-3.672-.612-5.288-.487-8.375 1.625ZM267.055 201.898c6.505 3.684 11.85 8.788 13.945 16.102 1.04 7.491-.214 13.877-4.441 20.133-4.71 5.922-9.752 9.209-17.297 10.242-6.251.277-11.215-.566-16.262-4.375-6.26-5.807-10.054-11.745-10.438-20.438.237-6.67 1.929-10.927 6.532-15.761 8.245-7.655 17.176-10.575 27.96-5.903Zm-15.43 16.727c-2.112 3.087-2.237 4.703-1.625 8.375 1.5 2.5 1.5 2.5 4 4 3.672.612 5.288.487 8.375-1.625 2.112-3.087 2.237-4.703 1.625-8.375-1.5-2.5-1.5-2.5-4-4-3.672-.612-5.288-.487-8.375 1.625ZM187.055 201.898c6.505 3.684 11.85 8.788 13.945 16.102 1.04 7.491-.214 13.877-4.441 20.133-4.71 5.922-9.752 9.209-17.297 10.242-6.251.277-11.215-.566-16.262-4.375-6.26-5.807-10.054-11.745-10.438-20.438.237-6.67 1.929-10.927 6.532-15.761 8.245-7.655 17.176-10.575 27.96-5.903Zm-15.43 16.727c-2.112 3.087-2.237 4.703-1.625 8.375 1.5 2.5 1.5 2.5 4 4 3.672.612 5.288.487 8.375-1.625 2.112-3.087 2.237-4.703 1.625-8.375-1.5-2.5-1.5-2.5-4-4-3.672-.612-5.288-.487-8.375 1.625Z"/></svg>